<svg width="74" height="27" viewBox="0 0 74 27" fill="none" xmlns="http://www.w3.org/2000/svg">
<path d="M11.568 11.68C11.568 11.904 11.464 12.072 11.256 12.184C11.064 12.296 10.84 12.352 10.584 12.352C10.552 13.456 10.448 14.56 10.272 15.664C10.096 16.752 9.848 17.848 9.528 18.952C9.384 19.448 9.168 20.048 8.88 20.752C8.592 21.456 8.224 22.136 7.776 22.792C7.344 23.448 6.824 24.008 6.216 24.472C5.624 24.936 4.944 25.168 4.176 25.168C4.032 25.168 3.848 25.144 3.624 25.096C3.416 25.048 3.24 24.96 3.096 24.832C2.808 24.576 2.528 24.28 2.256 23.944C1.984 23.608 1.744 23.256 1.536 22.888C1.312 22.536 1.136 22.176 1.008 21.808C0.88 21.44 0.816 21.096 0.816 20.776C0.816 20.456 0.896 20.072 1.056 19.624C1.216 19.176 1.416 18.72 1.656 18.256C1.88 17.808 2.12 17.384 2.376 16.984C2.616 16.584 2.824 16.264 3 16.024C3.576 15.24 4.056 14.632 4.44 14.2C4.84 13.752 5.184 13.392 5.472 13.12C5.776 12.832 6.056 12.592 6.312 12.4C6.568 12.208 6.848 11.968 7.152 11.68C7.152 11.632 7.048 11.52 6.84 11.344C6.632 11.152 6.4 10.848 6.144 10.432C5.904 10.016 5.68 9.464 5.472 8.776C5.264 8.088 5.16 7.224 5.16 6.184C5.16 5.512 5.232 4.864 5.376 4.24C5.536 3.6 5.752 3.04 6.024 2.56C6.296 2.064 6.616 1.672 6.984 1.384C7.352 1.096 7.752 0.951999 8.184 0.951999L9.912 0.831999C10.088 0.831999 10.216 0.895999 10.296 1.024C10.376 1.136 10.416 1.28 10.416 1.456L10.344 2.344C10.344 2.776 10.376 3.216 10.44 3.664C10.52 4.096 10.56 4.424 10.56 4.648V10.744C11.168 10.904 11.504 11.168 11.568 11.536V11.68ZM8.304 4.672L8.376 3.568C8.408 3.184 8.304 2.992 8.064 2.992C7.904 2.992 7.736 3.048 7.56 3.16C7.384 3.272 7.216 3.456 7.056 3.712C6.912 3.968 6.792 4.312 6.696 4.744C6.6 5.176 6.552 5.704 6.552 6.328C6.552 7.064 6.608 7.72 6.72 8.296C6.832 8.872 6.968 9.368 7.128 9.784C7.304 10.184 7.48 10.496 7.656 10.72C7.848 10.928 8.024 11.032 8.184 11.032C8.264 11.032 8.304 10.976 8.304 10.864V4.672ZM8.28 13.216C8.28 13.152 8.272 13.096 8.256 13.048C8.24 13 8.184 12.976 8.088 12.976C7.832 12.976 7.52 13.12 7.152 13.408C6.784 13.68 6.4 14.048 6 14.512C5.6 14.976 5.2 15.496 4.8 16.072C4.4 16.664 4.04 17.256 3.72 17.848C3.416 18.456 3.168 19.04 2.976 19.6C2.784 20.176 2.688 20.672 2.688 21.088C2.688 21.584 2.816 22.008 3.072 22.36C3.328 22.728 3.736 22.912 4.296 22.912C4.776 22.912 5.208 22.688 5.592 22.24C5.976 21.792 6.312 21.232 6.6 20.56C6.904 19.888 7.16 19.144 7.368 18.328C7.576 17.528 7.744 16.768 7.872 16.048C8.016 15.344 8.12 14.736 8.184 14.224C8.248 13.696 8.28 13.376 8.28 13.264V13.216ZM15.5749 4.888C15.5749 5 15.5189 5.096 15.4069 5.176C15.2949 5.24 15.1669 5.288 15.0229 5.32C14.8949 5.352 14.7669 5.376 14.6389 5.392C14.5109 5.408 14.4309 5.416 14.3989 5.416C14.0629 5.416 13.7269 5.32 13.3909 5.128C13.0709 4.936 12.7749 4.632 12.5029 4.216C12.4709 4.168 12.4229 4.104 12.3589 4.024C12.2949 3.944 12.2629 3.888 12.2629 3.856C12.2629 3.776 12.3189 3.704 12.4309 3.64C12.5589 3.576 12.6949 3.512 12.8389 3.448C12.9989 3.384 13.1429 3.336 13.2709 3.304C13.4149 3.272 13.5109 3.256 13.5589 3.256C13.8789 3.256 14.1909 3.336 14.4949 3.496C14.8149 3.656 15.0709 3.952 15.2629 4.384C15.2949 4.432 15.3509 4.52 15.4309 4.648C15.5269 4.76 15.5749 4.84 15.5749 4.888ZM18.0229 12.16C17.9749 12.544 17.8869 12.944 17.7589 13.36C17.6309 13.776 17.4469 14.168 17.2069 14.536C16.9829 14.888 16.6949 15.184 16.3429 15.424C15.9909 15.648 15.5589 15.76 15.0469 15.76C14.6469 15.76 14.2389 15.624 13.8229 15.352C13.4069 15.064 13.1189 14.688 12.9589 14.224C12.8149 13.76 12.7429 13.312 12.7429 12.88C12.7429 12.752 12.7509 12.56 12.7669 12.304C12.7829 12.048 12.7909 11.736 12.7909 11.368V8.728C12.7909 8.6 12.7829 8.464 12.7669 8.32C12.7669 8.176 12.7509 8.04 12.7189 7.912C12.7029 7.848 12.6709 7.776 12.6229 7.696C12.5909 7.616 12.5749 7.56 12.5749 7.528C12.5749 7.464 12.6149 7.416 12.6949 7.384C12.7749 7.336 12.8629 7.304 12.9589 7.288C13.0549 7.272 13.1429 7.264 13.2229 7.264C13.3189 7.264 13.3669 7.264 13.3669 7.264C13.4149 7.264 13.5269 7.272 13.7029 7.288C13.8789 7.288 14.0629 7.312 14.2549 7.36C14.4469 7.408 14.6149 7.488 14.7589 7.6C14.9189 7.696 14.9989 7.84 14.9989 8.032C15.0149 8.08 14.9829 8.168 14.9029 8.296C14.8389 8.424 14.7749 8.648 14.7109 8.968C14.6949 9.096 14.6789 9.216 14.6629 9.328C14.6469 9.424 14.6309 9.536 14.6149 9.664C14.5989 9.792 14.5829 9.952 14.5669 10.144C14.5509 10.32 14.5349 10.552 14.5189 10.84V12.28C14.5189 12.536 14.5269 12.8 14.5429 13.072C14.5589 13.328 14.5909 13.568 14.6389 13.792C14.7029 14 14.7989 14.176 14.9269 14.32C15.0549 14.448 15.2229 14.512 15.4309 14.512C15.7349 14.512 15.9749 14.424 16.1509 14.248C16.3269 14.072 16.4629 13.92 16.5589 13.792C16.7349 13.552 16.8709 13.256 16.9669 12.904C17.0629 12.536 17.1509 12.16 17.2309 11.776L17.2789 11.536C17.3269 11.296 17.4709 11.176 17.7109 11.176C17.9509 11.176 18.0709 11.344 18.0709 11.68V11.8L18.0229 12.16ZM23.0413 14.512C23.0413 14.896 22.9133 15.192 22.6573 15.4C22.4013 15.608 22.1053 15.76 21.7693 15.856C21.4493 15.952 21.1213 16.008 20.7853 16.024C20.4653 16.056 20.2333 16.072 20.0893 16.072C19.8653 16.072 19.5853 16.048 19.2493 16C18.9293 15.952 18.6093 15.88 18.2893 15.784C17.9853 15.672 17.7213 15.52 17.4973 15.328C17.2893 15.136 17.1853 14.896 17.1853 14.608C17.1853 14.432 17.2493 14.312 17.3773 14.248C17.5213 14.168 17.6573 14.128 17.7853 14.128C17.9613 14.128 18.1293 14.192 18.2893 14.32C18.4653 14.448 18.6413 14.584 18.8173 14.728C19.0093 14.872 19.2173 15.008 19.4413 15.136C19.6653 15.264 19.9213 15.328 20.2093 15.328C20.3373 15.328 20.5053 15.288 20.7133 15.208C20.9373 15.112 21.0493 14.952 21.0493 14.728C21.0493 14.504 20.9533 14.288 20.7613 14.08C20.5853 13.872 20.3533 13.656 20.0653 13.432C19.7933 13.208 19.4973 12.976 19.1773 12.736C18.8573 12.496 18.5533 12.24 18.2653 11.968C17.9933 11.68 17.7613 11.368 17.5693 11.032C17.3933 10.696 17.3053 10.328 17.3053 9.928C17.3053 9.368 17.4813 8.896 17.8333 8.512C18.2013 8.128 18.6253 7.824 19.1053 7.6C19.6013 7.376 20.1053 7.216 20.6173 7.12C21.1293 7.024 21.5293 6.976 21.8173 6.976C22.0893 6.976 22.3613 7.032 22.6333 7.144C22.9053 7.256 23.0413 7.472 23.0413 7.792C23.0413 7.888 23.0173 8.032 22.9693 8.224C22.9373 8.4 22.8733 8.576 22.7773 8.752C22.6973 8.928 22.5853 9.088 22.4413 9.232C22.2973 9.36 22.1133 9.424 21.8893 9.424C21.8253 9.424 21.7613 9.4 21.6973 9.352C21.6333 9.288 21.5613 9.224 21.4813 9.16C21.4013 9.08 21.3133 9.016 21.2173 8.968C21.1373 8.904 21.0413 8.872 20.9293 8.872C20.3693 8.872 19.9773 9.04 19.7533 9.376C19.5293 9.696 19.4173 10.04 19.4173 10.408C19.4173 10.728 19.6013 11.064 19.9693 11.416C20.3533 11.768 20.7693 12.12 21.2173 12.472C21.6813 12.824 22.0973 13.176 22.4653 13.528C22.8493 13.864 23.0413 14.192 23.0413 14.512ZM23.5583 11.656C23.5743 10.84 23.5983 10.008 23.6303 9.16C23.6623 8.312 23.6943 7.528 23.7263 6.808C23.7263 6.68 23.5983 6.592 23.3423 6.544C23.0863 6.496 22.7983 6.448 22.4783 6.4C22.1582 6.352 21.8702 6.28 21.6143 6.184C21.3582 6.072 21.2302 5.896 21.2302 5.656C21.2302 5.448 21.4382 5.328 21.8542 5.296C22.2702 5.264 22.8863 5.248 23.7023 5.248C23.7663 5.248 23.8063 5.152 23.8223 4.96C23.8543 4.768 23.8703 4.528 23.8703 4.24C23.8863 3.936 23.8943 3.616 23.8943 3.28C23.9103 2.944 23.9263 2.632 23.9423 2.344C23.9583 2.04 23.9823 1.792 24.0143 1.6C24.0623 1.408 24.1183 1.312 24.1823 1.312C24.2623 1.312 24.4063 1.328 24.6143 1.36C24.8223 1.392 25.0383 1.44 25.2623 1.504C25.4863 1.552 25.6783 1.616 25.8383 1.696C26.0143 1.776 26.1023 1.864 26.1023 1.96L25.8383 5.08C25.8383 5.176 25.9183 5.248 26.0783 5.296C26.2543 5.328 26.4703 5.352 26.7263 5.368C26.9983 5.368 27.2783 5.368 27.5663 5.368C27.8703 5.368 28.1503 5.392 28.4062 5.44C28.6783 5.488 28.8943 5.568 29.0543 5.68C29.2303 5.776 29.3183 5.928 29.3183 6.136C29.3183 6.168 29.3023 6.224 29.2703 6.304C29.2383 6.368 29.1983 6.4 29.1503 6.4C29.1183 6.4 29.0703 6.376 29.0063 6.328C28.9583 6.28 28.8143 6.256 28.5742 6.256C28.5103 6.256 28.3343 6.264 28.0463 6.28C27.7583 6.296 27.4543 6.32 27.1343 6.352C26.8143 6.384 26.5183 6.424 26.2463 6.472C25.9903 6.504 25.8463 6.552 25.8143 6.616C25.7983 6.648 25.7743 6.84 25.7423 7.192C25.7263 7.528 25.7023 7.976 25.6703 8.536C25.6543 9.096 25.6383 9.744 25.6223 10.48C25.6063 11.2 25.5983 11.96 25.5983 12.76C25.5983 13.064 25.6143 13.36 25.6463 13.648C25.6783 13.936 25.7263 14.2 25.7903 14.44C25.8543 14.664 25.9343 14.848 26.0303 14.992C26.1423 15.136 26.2703 15.208 26.4143 15.208C26.6223 15.208 26.8143 15.12 26.9903 14.944C27.1663 14.768 27.3263 14.528 27.4703 14.224C27.6143 13.92 27.7423 13.576 27.8543 13.192C27.9663 12.808 28.0623 12.416 28.1423 12.016C28.1903 11.776 28.2463 11.608 28.3103 11.512C28.3743 11.4 28.4703 11.344 28.5983 11.344C28.7103 11.344 28.8063 11.384 28.8863 11.464C28.9823 11.528 29.0303 11.688 29.0303 11.944C29.0303 12.104 29.0223 12.208 29.0063 12.256C28.9583 12.544 28.8623 12.944 28.7183 13.456C28.5903 13.952 28.4063 14.448 28.1663 14.944C27.9423 15.424 27.6623 15.848 27.3263 16.216C26.9903 16.584 26.5983 16.768 26.1503 16.768C25.7183 16.768 25.3423 16.64 25.0223 16.384C24.7023 16.144 24.4303 15.808 24.2063 15.376C23.9983 14.928 23.8383 14.408 23.7263 13.816C23.6143 13.208 23.5583 12.56 23.5583 11.872V11.656ZM37.8004 13.384C37.7684 13.608 37.6884 13.872 37.5604 14.176C37.4324 14.48 37.2644 14.776 37.0564 15.064C36.8644 15.336 36.6324 15.568 36.3604 15.76C36.1044 15.952 35.8164 16.048 35.4964 16.048C35.0164 16.048 34.5924 15.864 34.2244 15.496C33.8724 15.128 33.6564 14.608 33.5764 13.936C33.4804 14.192 33.3684 14.488 33.2404 14.824C33.1124 15.16 32.9524 15.472 32.7604 15.76C32.5684 16.048 32.3444 16.288 32.0884 16.48C31.8484 16.688 31.5604 16.792 31.2244 16.792C31.1284 16.792 31.0564 16.784 31.0084 16.768C30.9604 16.752 30.9044 16.728 30.8404 16.696C30.7924 16.68 30.7284 16.664 30.6484 16.648C30.5844 16.632 30.4884 16.624 30.3604 16.624C29.9764 16.624 29.6484 16.496 29.3764 16.24C29.1204 16 28.9124 15.688 28.7524 15.304C28.5924 14.92 28.4724 14.504 28.3924 14.056C28.3284 13.592 28.2964 13.16 28.2964 12.76C28.2964 11.8 28.3444 10.888 28.4404 10.024C28.5524 9.16 28.7284 8.4 28.9684 7.744C29.2084 7.072 29.5204 6.544 29.9044 6.16C30.2884 5.76 30.7524 5.56 31.2964 5.56C31.6164 5.56 31.8564 5.592 32.0164 5.656C32.1924 5.704 32.3524 5.768 32.4964 5.848C32.6404 5.912 32.7924 5.984 32.9524 6.064C33.1284 6.144 33.3684 6.208 33.6724 6.256C34.0084 6.448 34.2404 6.68 34.3684 6.952C34.5124 7.208 34.6004 7.488 34.6324 7.792C34.6804 8.096 34.6964 8.416 34.6804 8.752C34.6644 9.072 34.6804 9.392 34.7284 9.712C34.7284 9.728 34.7604 9.752 34.8244 9.784C34.9044 9.816 34.9924 9.856 35.0884 9.904C35.1844 9.936 35.2644 9.992 35.3284 10.072C35.4084 10.136 35.4484 10.224 35.4484 10.336V10.432C35.2884 10.848 35.1924 11.216 35.1604 11.536C35.1284 11.856 35.1124 12.24 35.1124 12.688C35.1124 12.912 35.1204 13.16 35.1364 13.432C35.1684 13.688 35.2084 13.936 35.2564 14.176C35.3204 14.4 35.4084 14.592 35.5204 14.752C35.6324 14.896 35.7764 14.968 35.9524 14.968C36.1444 14.968 36.3124 14.872 36.4564 14.68C36.6164 14.488 36.7444 14.272 36.8404 14.032C36.9524 13.776 37.0404 13.52 37.1044 13.264C37.1844 13.008 37.2324 12.816 37.2484 12.688C37.2804 12.496 37.3604 12.4 37.4884 12.4C37.5684 12.4 37.6404 12.448 37.7044 12.544C37.7844 12.624 37.8244 12.776 37.8244 13C37.8244 13.064 37.8244 13.128 37.8244 13.192C37.8244 13.24 37.8164 13.304 37.8004 13.384ZM33.3604 9.496C33.3604 9.32 33.3444 9.112 33.3124 8.872C33.2804 8.632 33.2244 8.408 33.1444 8.2C33.0644 7.992 32.9444 7.816 32.7844 7.672C32.6244 7.528 32.4084 7.456 32.1364 7.456C31.6884 7.456 31.3204 7.664 31.0324 8.08C30.7604 8.48 30.5444 8.96 30.3844 9.52C30.2244 10.064 30.1204 10.632 30.0724 11.224C30.0244 11.8 30.0004 12.256 30.0004 12.592C30.0004 12.848 30.0084 13.16 30.0244 13.528C30.0564 13.88 30.1044 14.216 30.1684 14.536C30.2324 14.856 30.3204 15.128 30.4324 15.352C30.5604 15.576 30.7204 15.688 30.9124 15.688C31.3764 15.688 31.7284 15.512 31.9684 15.16C32.2244 14.792 32.4164 14.344 32.5444 13.816C32.6724 13.272 32.7604 12.696 32.8084 12.088C32.8724 11.464 32.9284 10.896 32.9764 10.384C33.0084 10.112 33.0804 9.944 33.1924 9.88C33.3044 9.8 33.3604 9.744 33.3604 9.712V9.496ZM45.0551 16.624C45.0551 16.784 44.9831 16.896 44.8391 16.96C44.6951 17.024 44.5591 17.056 44.4311 17.056L43.9511 17.008C43.8711 17.008 43.8311 17.056 43.8311 17.152L43.8071 17.44C43.8231 17.872 43.8311 18.416 43.8311 19.072C43.8311 19.728 43.8311 20.36 43.8311 20.968C43.8311 21.608 43.8071 22.232 43.7591 22.84C43.7271 23.464 43.6391 24.016 43.4951 24.496C43.3511 24.992 43.1431 25.384 42.8711 25.672C42.6151 25.976 42.2551 26.128 41.7911 26.128C41.3911 26.128 40.9671 26.104 40.5191 26.056C40.0871 26.024 39.6871 25.928 39.3191 25.768C38.9671 25.608 38.6711 25.368 38.4311 25.048C38.2071 24.744 38.0951 24.328 38.0951 23.8C38.0951 23.272 38.1511 22.728 38.2631 22.168C38.3911 21.624 38.5671 21.088 38.7911 20.56C39.0151 20.048 39.2791 19.552 39.5831 19.072C39.9031 18.608 40.2471 18.192 40.6151 17.824C40.8071 17.632 41.0151 17.432 41.2391 17.224C41.4791 17.032 41.6871 16.872 41.8631 16.744V16.72C41.8951 16.384 41.9191 16.048 41.9351 15.712C41.9511 15.376 41.9591 15.032 41.9591 14.68C41.8791 14.824 41.7831 15.024 41.6711 15.28C41.5591 15.52 41.4231 15.752 41.2631 15.976C41.1191 16.2 40.9511 16.392 40.7591 16.552C40.5671 16.728 40.3511 16.816 40.1111 16.816C39.9831 16.816 39.8711 16.792 39.7751 16.744C39.6791 16.696 39.5431 16.672 39.3671 16.672C38.9191 16.64 38.5431 16.52 38.2391 16.312C37.9511 16.104 37.7191 15.816 37.5431 15.448C37.3831 15.08 37.2711 14.648 37.2071 14.152C37.1431 13.64 37.1111 13.072 37.1111 12.448C37.1111 11.696 37.1511 10.92 37.2311 10.12C37.3271 9.32 37.4871 8.592 37.7111 7.936C37.9351 7.264 38.2311 6.72 38.5991 6.304C38.9831 5.872 39.4631 5.656 40.0391 5.656C40.1031 5.656 40.1831 5.68 40.2791 5.728C40.3911 5.776 40.5031 5.832 40.6151 5.896C40.7431 5.944 40.8631 6 40.9751 6.064C41.1031 6.112 41.1991 6.144 41.2631 6.16C41.5831 6.224 41.8791 6.304 42.1511 6.4C42.4231 6.496 42.6551 6.624 42.8471 6.784C43.0391 6.928 43.1911 7.128 43.3031 7.384C43.4151 7.624 43.4711 7.928 43.4711 8.296C43.4711 8.552 43.4471 8.784 43.3991 8.992C43.3671 9.2 43.3511 9.464 43.3511 9.784C43.3511 9.912 43.3991 10 43.4951 10.048C43.5911 10.096 43.6951 10.136 43.8071 10.168C43.9351 10.2 44.0471 10.24 44.1431 10.288C44.2391 10.32 44.2871 10.4 44.2871 10.528C44.2871 10.56 44.2471 10.64 44.1671 10.768C44.1031 10.88 44.0631 10.952 44.0471 10.984C43.9991 11.112 43.9591 11.32 43.9271 11.608C43.8951 11.88 43.8711 12.184 43.8551 12.52C43.8391 12.84 43.8231 13.176 43.8071 13.528C43.8071 13.864 43.8071 14.168 43.8071 14.44C43.8071 14.648 43.8071 14.928 43.8071 15.28C43.8071 15.616 43.8151 15.896 43.8311 16.12H43.9271C43.9591 16.12 43.9911 16.112 44.0231 16.096C44.0551 16.096 44.0791 16.096 44.0951 16.096C44.2391 16.096 44.4311 16.136 44.6711 16.216C44.9271 16.312 45.0551 16.448 45.0551 16.624ZM41.9831 9.208C41.9831 9.032 41.9671 8.832 41.9351 8.608C41.9031 8.384 41.8471 8.176 41.7671 7.984C41.6871 7.776 41.5671 7.608 41.4071 7.48C41.2631 7.336 41.0791 7.264 40.8551 7.264C40.5511 7.264 40.2631 7.384 39.9911 7.624C39.7351 7.864 39.5031 8.208 39.2951 8.656C39.1031 9.088 38.9431 9.624 38.8151 10.264C38.7031 10.888 38.6471 11.6 38.6471 12.4C38.6471 12.736 38.6551 13.088 38.6711 13.456C38.7031 13.808 38.7431 14.128 38.7911 14.416C38.8551 14.704 38.9431 14.944 39.0551 15.136C39.1831 15.328 39.3431 15.424 39.5351 15.424C39.8711 15.424 40.1671 15.28 40.4231 14.992C40.6791 14.704 40.8871 14.352 41.0471 13.936C41.2231 13.504 41.3511 13.064 41.4311 12.616C41.5271 12.152 41.5831 11.752 41.5991 11.416C41.6151 10.952 41.6391 10.64 41.6711 10.48C41.7031 10.304 41.7351 10.192 41.7671 10.144C41.8631 10.016 41.9191 9.864 41.9351 9.688C41.9671 9.512 41.9831 9.352 41.9831 9.208ZM41.8871 17.56C41.5191 17.816 41.1671 18.176 40.8311 18.64C40.5111 19.104 40.2311 19.608 39.9911 20.152C39.7511 20.696 39.5591 21.248 39.4151 21.808C39.2871 22.368 39.2231 22.872 39.2231 23.32C39.2231 23.48 39.2391 23.656 39.2711 23.848C39.3031 24.04 39.3511 24.216 39.4151 24.376C39.4951 24.552 39.5991 24.696 39.7271 24.808C39.8711 24.92 40.0391 24.976 40.2311 24.976C40.5671 24.976 40.8391 24.832 41.0471 24.544C41.2711 24.272 41.4391 23.944 41.5511 23.56C41.6791 23.176 41.7591 22.784 41.7911 22.384C41.8391 21.984 41.8631 21.664 41.8631 21.424C41.8631 21.376 41.8631 21.304 41.8631 21.208C41.8631 21.112 41.8631 20.928 41.8631 20.656C41.8791 20.384 41.8871 20 41.8871 19.504C41.8871 19.024 41.8871 18.376 41.8871 17.56ZM52.2206 12.616C52.2206 12.728 52.1806 13 52.1006 13.432C52.0366 13.848 51.9086 14.296 51.7166 14.776C51.5406 15.24 51.2926 15.656 50.9726 16.024C50.6686 16.392 50.2766 16.576 49.7966 16.576C49.2846 16.576 48.8766 16.392 48.5726 16.024C48.2686 15.672 48.0366 15.248 47.8766 14.752C47.7166 14.24 47.6126 13.712 47.5646 13.168C47.5166 12.608 47.4926 12.144 47.4926 11.776C47.4926 11.36 47.5166 10.944 47.5646 10.528C47.6126 10.096 47.6446 9.672 47.6606 9.256C47.6606 9.128 47.5966 9.048 47.4686 9.016C47.3406 8.984 47.2206 8.968 47.1086 8.968C46.9166 8.968 46.7966 8.992 46.7486 9.04C46.7006 9.088 46.6686 9.144 46.6526 9.208L46.5566 9.976C46.4926 10.488 46.4206 10.984 46.3406 11.464C46.2766 11.928 46.1966 12.344 46.1006 12.712C46.0206 13.064 45.9166 13.352 45.7886 13.576C45.6766 13.784 45.5406 13.888 45.3806 13.888H45.3566C45.2926 13.888 45.2286 13.872 45.1646 13.84C45.1166 13.808 45.0926 13.728 45.0926 13.6C45.0926 13.536 45.1086 13.44 45.1406 13.312C45.2686 12.752 45.3486 12.288 45.3806 11.92C45.4126 11.552 45.4366 11.224 45.4526 10.936V10.768C45.4526 10.688 45.4526 10.592 45.4526 10.48C45.4686 10.368 45.4766 10.232 45.4766 10.072V9.448C45.4766 9.272 45.4766 9.088 45.4766 8.896C45.4766 8.704 45.4606 8.496 45.4286 8.272L45.3566 6.856C45.3566 6.76 45.3966 6.672 45.4766 6.592C45.5566 6.512 45.6606 6.44 45.7886 6.376C45.9166 6.312 46.0526 6.264 46.1966 6.232C46.3406 6.2 46.4686 6.184 46.5806 6.184C46.8526 6.184 46.9886 6.36 46.9886 6.712V6.832L46.9646 7.36V7.504C46.9646 7.616 46.9886 7.688 47.0366 7.72C47.0846 7.736 47.1806 7.76 47.3246 7.792H47.3966C47.5246 7.808 47.7326 7.824 48.0206 7.84C48.3086 7.856 48.5966 7.888 48.8846 7.936C49.1726 7.984 49.4206 8.064 49.6286 8.176C49.8526 8.272 49.9646 8.416 49.9646 8.608C49.9646 8.672 49.9486 8.768 49.9166 8.896C49.8846 9.008 49.8446 9.128 49.7966 9.256C49.7486 9.368 49.7086 9.472 49.6766 9.568C49.6446 9.664 49.6286 9.728 49.6286 9.76C49.3406 10.864 49.1966 12.016 49.1966 13.216C49.1966 13.312 49.2046 13.488 49.2206 13.744C49.2366 14 49.2686 14.264 49.3166 14.536C49.3646 14.808 49.4366 15.048 49.5326 15.256C49.6286 15.464 49.7486 15.568 49.8926 15.568C50.1326 15.568 50.3486 15.424 50.5406 15.136C50.7326 14.832 50.9006 14.488 51.0446 14.104C51.1886 13.704 51.3006 13.304 51.3806 12.904C51.4766 12.504 51.5406 12.208 51.5726 12.016C51.6046 11.84 51.6526 11.736 51.7166 11.704C51.7966 11.656 51.8686 11.632 51.9326 11.632C52.1566 11.632 52.2686 11.776 52.2686 12.064C52.2686 12.096 52.2606 12.184 52.2446 12.328C52.2446 12.456 52.2366 12.552 52.2206 12.616ZM61.0269 13.384C60.9949 13.608 60.9149 13.872 60.7869 14.176C60.6589 14.48 60.4909 14.776 60.2829 15.064C60.0909 15.336 59.8589 15.568 59.5869 15.76C59.3309 15.952 59.0429 16.048 58.7229 16.048C58.2429 16.048 57.8189 15.864 57.4509 15.496C57.0989 15.128 56.8829 14.608 56.8029 13.936C56.7069 14.192 56.5949 14.488 56.4669 14.824C56.3389 15.16 56.1789 15.472 55.9869 15.76C55.7949 16.048 55.5709 16.288 55.3149 16.48C55.0749 16.688 54.7869 16.792 54.4509 16.792C54.3549 16.792 54.2829 16.784 54.2349 16.768C54.1869 16.752 54.1309 16.728 54.0669 16.696C54.0189 16.68 53.9549 16.664 53.8749 16.648C53.8109 16.632 53.7149 16.624 53.5869 16.624C53.2029 16.624 52.8749 16.496 52.6029 16.24C52.3469 16 52.1389 15.688 51.9789 15.304C51.8189 14.92 51.6989 14.504 51.6189 14.056C51.5549 13.592 51.5229 13.16 51.5229 12.76C51.5229 11.8 51.5709 10.888 51.6669 10.024C51.7789 9.16 51.9549 8.4 52.1949 7.744C52.4349 7.072 52.7469 6.544 53.1309 6.16C53.5149 5.76 53.9789 5.56 54.5229 5.56C54.8429 5.56 55.0829 5.592 55.2429 5.656C55.4189 5.704 55.5789 5.768 55.7229 5.848C55.8669 5.912 56.0189 5.984 56.1789 6.064C56.3549 6.144 56.5949 6.208 56.8989 6.256C57.2349 6.448 57.4669 6.68 57.5949 6.952C57.7389 7.208 57.8269 7.488 57.8589 7.792C57.9069 8.096 57.9229 8.416 57.9069 8.752C57.8909 9.072 57.9069 9.392 57.9549 9.712C57.9549 9.728 57.9869 9.752 58.0509 9.784C58.1309 9.816 58.2189 9.856 58.3149 9.904C58.4109 9.936 58.4909 9.992 58.5549 10.072C58.6349 10.136 58.6749 10.224 58.6749 10.336V10.432C58.5149 10.848 58.4189 11.216 58.3869 11.536C58.3549 11.856 58.3389 12.24 58.3389 12.688C58.3389 12.912 58.3469 13.16 58.3629 13.432C58.3949 13.688 58.4349 13.936 58.4829 14.176C58.5469 14.4 58.6349 14.592 58.7469 14.752C58.8589 14.896 59.0029 14.968 59.1789 14.968C59.3709 14.968 59.5389 14.872 59.6829 14.68C59.8429 14.488 59.9709 14.272 60.0669 14.032C60.1789 13.776 60.2669 13.52 60.3309 13.264C60.4109 13.008 60.4589 12.816 60.4749 12.688C60.5069 12.496 60.5869 12.4 60.7149 12.4C60.7949 12.4 60.8669 12.448 60.9309 12.544C61.0109 12.624 61.0509 12.776 61.0509 13C61.0509 13.064 61.0509 13.128 61.0509 13.192C61.0509 13.24 61.0429 13.304 61.0269 13.384ZM56.5869 9.496C56.5869 9.32 56.5709 9.112 56.5389 8.872C56.5069 8.632 56.4509 8.408 56.3709 8.2C56.2909 7.992 56.1709 7.816 56.0109 7.672C55.8509 7.528 55.6349 7.456 55.3629 7.456C54.9149 7.456 54.5469 7.664 54.2589 8.08C53.9869 8.48 53.7709 8.96 53.6109 9.52C53.4509 10.064 53.3469 10.632 53.2989 11.224C53.2509 11.8 53.2269 12.256 53.2269 12.592C53.2269 12.848 53.2349 13.16 53.2509 13.528C53.2829 13.88 53.3309 14.216 53.3949 14.536C53.4589 14.856 53.5469 15.128 53.6589 15.352C53.7869 15.576 53.9469 15.688 54.1389 15.688C54.6029 15.688 54.9549 15.512 55.1949 15.16C55.4509 14.792 55.6429 14.344 55.7709 13.816C55.8989 13.272 55.9869 12.696 56.0349 12.088C56.0989 11.464 56.1549 10.896 56.2029 10.384C56.2349 10.112 56.3069 9.944 56.4189 9.88C56.5309 9.8 56.5869 9.744 56.5869 9.712V9.496ZM68.3777 10.096C68.1537 10.528 67.9457 10.984 67.7537 11.464C67.5617 11.944 67.4177 12.32 67.3217 12.592C67.3057 12.672 67.2577 12.84 67.1777 13.096C67.1137 13.352 67.0337 13.64 66.9377 13.96C66.8577 14.264 66.7857 14.568 66.7217 14.872C66.6577 15.176 66.6257 15.424 66.6257 15.616C66.6257 15.696 66.5537 15.768 66.4097 15.832C66.2657 15.896 66.0817 15.928 65.8577 15.928C65.5057 15.928 65.2257 15.88 65.0177 15.784C64.8097 15.688 64.6497 15.536 64.5377 15.328C64.4417 15.104 64.3777 14.816 64.3457 14.464C64.3297 14.112 64.3217 13.688 64.3217 13.192V11.392C64.3217 11.264 64.3137 11.136 64.2977 11.008C64.2977 10.88 64.2737 10.8 64.2257 10.768C64.1457 10.8 64.0417 11.008 63.9137 11.392C63.8017 11.776 63.6897 12.248 63.5777 12.808C63.4817 13.352 63.3937 13.928 63.3137 14.536C63.2337 15.144 63.1937 15.688 63.1937 16.168C63.1937 16.344 63.0977 16.448 62.9057 16.48C62.7297 16.512 62.5297 16.528 62.3057 16.528C62.2417 16.528 62.1297 16.512 61.9697 16.48C61.8257 16.464 61.6737 16.44 61.5137 16.408C61.3697 16.376 61.2337 16.328 61.1057 16.264C60.9777 16.216 60.8977 16.152 60.8657 16.072C60.7857 15.864 60.7217 15.52 60.6737 15.04C60.6417 14.56 60.6257 13.816 60.6257 12.808C60.6257 12.216 60.6337 11.528 60.6497 10.744C60.6817 9.96 60.7137 9.04 60.7457 7.984C60.7457 7.84 60.7377 7.656 60.7217 7.432C60.7057 7.192 60.6977 7.056 60.6977 7.024C60.6977 6.896 60.7457 6.824 60.8417 6.808C60.9537 6.776 61.0337 6.76 61.0817 6.76C61.1937 6.76 61.3217 6.776 61.4657 6.808C61.6257 6.824 61.7777 6.848 61.9217 6.88C62.0817 6.912 62.2257 6.952 62.3537 7C62.4817 7.032 62.5697 7.064 62.6177 7.096V12.88C62.6977 12.56 62.7857 12.192 62.8817 11.776C62.9937 11.344 63.1137 10.92 63.2417 10.504C63.3857 10.088 63.5377 9.704 63.6977 9.352C63.8577 9 64.0257 8.744 64.2017 8.584C64.2657 8.536 64.3857 8.504 64.5617 8.488C64.7377 8.456 64.8817 8.44 64.9937 8.44C65.0737 8.44 65.1697 8.456 65.2817 8.488C65.4097 8.504 65.5297 8.536 65.6417 8.584C65.7537 8.632 65.8497 8.696 65.9297 8.776C66.0257 8.84 66.0817 8.92 66.0977 9.016V12.904V13.12C66.0977 13.216 66.1137 13.264 66.1457 13.264C66.1777 13.264 66.2657 13.048 66.4097 12.616C66.5697 12.184 66.7537 11.672 66.9617 11.08C67.1697 10.488 67.3937 9.88 67.6337 9.256C67.8737 8.632 68.0897 8.136 68.2817 7.768C68.3137 7.704 68.4177 7.672 68.5937 7.672C68.7857 7.656 68.9537 7.648 69.0977 7.648C69.2097 7.648 69.3617 7.688 69.5537 7.768C69.7457 7.832 69.9297 7.928 70.1057 8.056C70.2977 8.184 70.4577 8.328 70.5857 8.488C70.7297 8.648 70.8017 8.816 70.8017 8.992C70.8017 9.024 70.7537 9.12 70.6577 9.28C70.5617 9.424 70.4977 9.576 70.4657 9.736C70.3537 10.184 70.2737 10.624 70.2257 11.056C70.1937 11.488 70.1777 12.04 70.1777 12.712C70.1777 13 70.1857 13.288 70.2017 13.576C70.2337 13.864 70.2737 14.128 70.3217 14.368C70.3857 14.592 70.4657 14.776 70.5617 14.92C70.6577 15.064 70.7857 15.136 70.9457 15.136C71.1697 15.136 71.3697 15.064 71.5457 14.92C71.7217 14.76 71.8737 14.552 72.0017 14.296C72.1297 14.04 72.2417 13.744 72.3377 13.408C72.4337 13.056 72.5137 12.696 72.5777 12.328C72.6577 11.944 72.8017 11.752 73.0097 11.752C73.1377 11.752 73.2177 11.784 73.2497 11.848C73.2977 11.912 73.3217 12.056 73.3217 12.28C73.3217 12.408 73.3137 12.496 73.2977 12.544C73.2817 12.752 73.2097 13.08 73.0817 13.528C72.9697 13.96 72.8017 14.4 72.5777 14.848C72.3697 15.28 72.1057 15.664 71.7857 16C71.4657 16.32 71.0977 16.48 70.6817 16.48C70.1857 16.48 69.7777 16.36 69.4577 16.12C69.1377 15.896 68.8897 15.592 68.7137 15.208C68.5377 14.808 68.4097 14.352 68.3297 13.84C68.2657 13.328 68.2337 12.792 68.2337 12.232V12.064L68.3777 10.096Z" fill="white"/>
</svg>
